<svg xmlns="http://www.w3.org/2000/svg" viewBox="0 0 1200 630" width="1200" height="630">
  <!-- Background — warm paper -->
  <rect x="0" y="0" width="1200" height="630" fill="#F6F3EC"/>

  <!-- Subtle texture band -->
  <rect x="0" y="0" width="1200" height="4" fill="#1B1A17" opacity="0.08"/>
  <rect x="0" y="626" width="1200" height="4" fill="#1B1A17" opacity="0.08"/>

  <!-- Icon area: variant C2 (ink brackets + 7-bar waveform with forest center), positioned left -->
  <g transform="translate(80, 115) scale(0.39)">
    <!-- White card backing for the mark -->
    <rect x="0" y="0" width="1024" height="1024" rx="185" ry="185" fill="#FFFFFF"/>

    <!-- Left bracket -->
    <g fill="#1B1A17">
      <rect x="224" y="296" width="52" height="432" rx="26" ry="26"/>
      <rect x="224" y="296" width="148" height="52" rx="26" ry="26"/>
      <rect x="224" y="676" width="148" height="52" rx="26" ry="26"/>
    </g>

    <!-- Right bracket (mirrored) -->
    <g fill="#1B1A17">
      <rect x="748" y="296" width="52" height="432" rx="26" ry="26"/>
      <rect x="652" y="296" width="148" height="52" rx="26" ry="26"/>
      <rect x="652" y="676" width="148" height="52" rx="26" ry="26"/>
    </g>

    <!-- 7-bar waveform — ink with forest center bar -->
    <rect x="312" y="482" width="40" height="60"  rx="20" ry="20" fill="#1B1A17"/>
    <rect x="372" y="457" width="40" height="110" rx="20" ry="20" fill="#1B1A17"/>
    <rect x="432" y="422" width="40" height="180" rx="20" ry="20" fill="#1B1A17"/>
    <rect x="492" y="372" width="40" height="280" rx="20" ry="20" fill="#457261"/>
    <rect x="552" y="422" width="40" height="180" rx="20" ry="20" fill="#1B1A17"/>
    <rect x="612" y="457" width="40" height="110" rx="20" ry="20" fill="#1B1A17"/>
    <rect x="672" y="482" width="40" height="60"  rx="20" ry="20" fill="#1B1A17"/>
  </g>

  <!-- Right-side text — wordmark + tagline + proof strip -->
  <g font-family="-apple-system, 'SF Pro Display', Helvetica, Arial, sans-serif">
    <!-- Wordmark -->
    <text x="540" y="260"
          font-size="92"
          font-weight="800"
          fill="#1B1A17"
          letter-spacing="-3">ThoughtMic</text>

    <!-- Tagline -->
    <text x="540" y="340"
          font-size="44"
          font-weight="500"
          fill="#1B1A17"
          letter-spacing="-1">Speak your second brain.</text>

    <!-- Proof / compat strip -->
    <text x="540" y="420"
          font-size="24"
          font-weight="500"
          fill="#6B665C"
          letter-spacing="0">Obsidian  ·  Logseq  ·  any Markdown folder</text>

    <!-- Local-first stamp -->
    <g transform="translate(540, 470)">
      <rect x="0" y="0" width="220" height="48" rx="24" fill="#1B1A17"/>
      <text x="110" y="32"
            font-size="18"
            font-weight="700"
            fill="#F6F3EC"
            letter-spacing="1"
            text-anchor="middle">100% ON-DEVICE</text>
    </g>
  </g>
</svg>
