<svg xmlns="http://www.w3.org/2000/svg" viewBox="0 0 1024 1024" width="1024" height="1024">
  <title>ThoughtMic Icon — Variant C2: Ink wikilink bracket with 7-bar waveform and forest center accent</title>
  <desc>Ink brackets containing 7-bar voice waveform; center bar is forest as a small uniform accent (no terracotta inside the mark). Smaller forest presence than C1. Waveform is centered at x=512.</desc>

  <!-- Canvas -->
  <rect x="0" y="0" width="1024" height="1024" rx="185" ry="185" fill="#F6F3EC"/>

  <!-- Left bracket — vertical bar + top/bottom caps, proper [ shape -->
  <g fill="#1B1A17">
    <!-- vertical stem -->
    <rect x="224" y="296" width="52" height="432" rx="26" ry="26"/>
    <!-- top cap -->
    <rect x="224" y="296" width="148" height="52" rx="26" ry="26"/>
    <!-- bottom cap -->
    <rect x="224" y="676" width="148" height="52" rx="26" ry="26"/>
  </g>

  <!-- Right bracket (mirrored) -->
  <g fill="#1B1A17">
    <rect x="748" y="296" width="52" height="432" rx="26" ry="26"/>
    <rect x="652" y="296" width="148" height="52" rx="26" ry="26"/>
    <rect x="652" y="676" width="148" height="52" rx="26" ry="26"/>
  </g>

  <!-- Voice waveform — 7 bars, ink with forest center, centered at x=512, vertically centered at y=512 -->
  <g>
    <rect x="312" y="482" width="40" height="60"  rx="20" ry="20" fill="#1B1A17"/>
    <rect x="372" y="457" width="40" height="110" rx="20" ry="20" fill="#1B1A17"/>
    <rect x="432" y="422" width="40" height="180" rx="20" ry="20" fill="#1B1A17"/>
    <rect x="492" y="372" width="40" height="280" rx="20" ry="20" fill="#457261"/>
    <rect x="552" y="422" width="40" height="180" rx="20" ry="20" fill="#1B1A17"/>
    <rect x="612" y="457" width="40" height="110" rx="20" ry="20" fill="#1B1A17"/>
    <rect x="672" y="482" width="40" height="60"  rx="20" ry="20" fill="#1B1A17"/>
  </g>
</svg>
